<?xml version="1.0" encoding="UTF-8"?>
<svg id="Layer_2" data-name="Layer 2" xmlns="http://www.w3.org/2000/svg" viewBox="0 0 729.17 190">
  <defs>
    <style>
      .cls-1 {
        fill: #a3a3a3;
      }

      .cls-2 {
        fill: #00afcb;
      }
    </style>
  </defs>
  <g id="Layer_9" data-name="Layer 9">
    <g>
      <path d="M185.3,107c-.72,0-1.08-.2-1.08-.61,0-.2.18-.41.54-.61.36-.2,1.38-.41,3.06-.61,1.08-.2,2.16-.46,3.24-.76,1.08-.31,2.07-.86,2.97-1.68.9-.81,1.62-1.93,2.16-3.36.54-1.43.81-3.31.81-5.66V13.3c0-2.34-.27-4.23-.81-5.66-.54-1.43-1.26-2.55-2.16-3.36-.9-.81-1.89-1.38-2.97-1.68-1.08-.31-2.16-.56-3.24-.76-1.68-.2-2.7-.41-3.06-.61-.36-.2-.54-.41-.54-.61,0-.41.36-.61,1.08-.61h41.62c.73,0,1.1.21,1.1.61,0,.21-.18.41-.55.61-.37.21-1.41.41-3.12.61-1.1.21-2.2.46-3.3.76-1.1.31-2.11.87-3.03,1.68-.92.82-1.65,1.94-2.2,3.36-.55,1.43-.82,3.31-.82,5.66v53.22c1.59-3.26,3.64-5.91,6.14-7.95,2.5-2.04,5.22-3.8,8.16-5.28,2.93-1.48,5.93-2.75,8.98-3.82,3.05-1.07,5.96-2.22,8.71-3.44s5.19-2.62,7.33-4.21c2.14-1.58,3.7-3.64,4.67-6.19V13.3c0-2.34-.27-4.23-.81-5.66-.54-1.43-1.26-2.55-2.16-3.36-.9-.81-1.89-1.38-2.97-1.68-1.08-.31-2.16-.56-3.24-.76-1.68-.2-2.7-.41-3.06-.61-.36-.2-.54-.41-.54-.61,0-.41.36-.61,1.08-.61h41.4c.72,0,1.08.21,1.08.61,0,.21-.18.41-.54.61-.36.21-1.38.41-3.06.61-1.08.21-2.16.46-3.24.76-1.08.31-2.07.87-2.97,1.68-.9.82-1.62,1.94-2.16,3.36-.54,1.43-.81,3.31-.81,5.66v80.4c0,2.35.27,4.23.81,5.66.54,1.43,1.26,2.55,2.16,3.36.9.82,1.89,1.38,2.97,1.68,1.08.31,2.16.56,3.24.76,1.68.21,2.7.41,3.06.61.36.21.54.41.54.61,0,.41-.36.61-1.08.61h-41.62c-.73,0-1.1-.2-1.1-.61,0-.2.18-.41.55-.61.37-.2,1.4-.41,3.12-.61,1.1-.2,2.2-.46,3.3-.76,1.1-.31,2.11-.86,3.03-1.68.92-.82,1.65-1.94,2.2-3.36.55-1.43.82-3.31.82-5.66v-53.83c-1.59,2.24-3.64,4.05-6.14,5.43-2.51,1.38-5.22,2.65-8.16,3.82-2.93,1.17-5.93,2.32-8.98,3.44-3.06,1.12-5.96,2.5-8.71,4.13-2.75,1.63-5.2,3.67-7.33,6.12-2.14,2.45-3.7,5.51-4.67,9.18v21.72c0,2.35.27,4.23.81,5.66.54,1.43,1.26,2.55,2.16,3.36.9.82,1.89,1.38,2.97,1.68,1.08.31,2.16.56,3.24.76,1.68.21,2.7.41,3.06.61.36.21.54.41.54.61,0,.41-.36.61-1.08.61h-41.4Z"/>
      <path d="M294.39,107c-.73,0-1.1-.2-1.1-.61,0-.2.18-.41.55-.61.37-.2,1.4-.41,3.11-.61,1.1-.2,2.13-.48,3.11-.84.97-.36,1.92-.94,2.84-1.76.91-.81,1.8-1.93,2.65-3.36.85-1.43,1.71-3.26,2.56-5.5L342.7.76c.12-.51.55-.76,1.28-.76h2.56c.73,0,1.16.26,1.28.76l35.87,92.94c.85,2.24,1.71,4.08,2.56,5.5.85,1.43,1.74,2.55,2.65,3.36.91.82,1.86,1.4,2.84,1.76.97.36,2.01.64,3.11.84,1.71.21,2.74.41,3.11.61.37.21.55.41.55.61,0,.41-.37.61-1.1.61h-42.09c-.73,0-1.1-.2-1.1-.61,0-.2.18-.41.55-.61.37-.2,1.4-.41,3.11-.61,1.1-.2,2.29-.48,3.57-.84,1.28-.36,2.38-.89,3.29-1.6.91-.71,1.52-1.68,1.83-2.9.3-1.22.09-2.8-.64-4.74l-12.99-34.39c-2.44,2.45-5.43,4.36-8.97,5.73-3.54,1.38-7.17,2.85-10.89,4.43-3.72,1.58-7.35,3.54-10.89,5.88-3.54,2.35-6.47,5.61-8.78,9.78l-3.29,8.87c-.73,1.94-.95,3.49-.64,4.66.3,1.17.91,2.12,1.83,2.83.91.71,1.98,1.22,3.2,1.53,1.22.31,2.38.56,3.48.76,1.71.21,2.74.41,3.11.61.37.21.55.41.55.61,0,.41-.37.61-1.1.61h-26.17ZM315.79,80.27c2.81-3.06,5.89-5.45,9.25-7.19,3.36-1.73,6.74-3.29,10.16-4.66,3.42-1.38,6.62-2.73,9.61-4.05,2.99-1.32,5.46-3.11,7.42-5.35l-14.46-38.54-21.97,59.8Z"/>
      <path d="M461.52,108c-.73-.81-1.16-1.06-1.28-1.57l-39.24-97.42v85.03c.06,2.35.34,4.23.88,5.66.55,1.43,1.28,2.55,2.2,3.36.92.82,1.92,1.38,3.02,1.68,1.1.31,2.2.56,3.3.76,1.71.21,2.75.41,3.11.61.37.21.55.41.55.61,0,.41-1.1.27-1.1.27h-26.91c-.74,0-1.1-.2-1.1-.61,0-.2.18-.41.55-.61.37-.2,1.41-.41,3.13-.61,1.1-.2,2.21-.46,3.31-.76,1.1-.31,2.11-.86,3.03-1.68.92-.81,1.65-1.93,2.21-3.36.55-1.43.83-3.31.83-5.66V13.3c0-2.34-.28-4.23-.83-5.66-.55-1.43-1.29-2.55-2.21-3.36-.92-.81-1.93-1.38-3.03-1.68-1.1-.31-2.21-.56-3.31-.76-1.72-.2-2.76-.41-3.13-.61-.37-.2-.55-.41-.55-.61,0-.41.37-.61,1.1-.61h28.67c.74,0,1.16.26,1.29.76l33.82,85.91L500.7.76c.12-.51.55-.76,1.29-.76h29.96c.73,0,1.1.21,1.1.61,0,.21-.18.41-.55.61-.37.21-1.41.41-3.13.61-1.1.21-2.21.46-3.31.76-1.1.31-2.11.87-3.03,1.68-.92.82-1.65,1.94-2.21,3.36-.55,1.43-.83,3.31-.83,5.66v80.4c0,2.35.28,4.23.83,5.66.55,1.43,1.29,2.55,2.21,3.36.92.82,1.93,1.38,3.03,1.68,1.1.31,2.21.56,3.31.76,1.71.21,2.76.41,3.13.61.37.21.55.41.55.61,0,.41-.37.61-1.1.61h-42.04s-1.1.14-1.1-.27c0-.2.18-.41.55-.61.37-.2,1.4-.41,3.11-.61,1.1-.2,2.2-.46,3.3-.76,1.1-.31,2.11-.86,3.02-1.68.92-.82,1.65-1.94,2.2-3.36.55-1.43.82-3.31,1.02-5.66V5.79l-36.45,100.63c-.12.51-.55.76-1.28,1.57h-2.75Z"/>
      <path d="M545.1,107c-.73,0-1.1-.22-1.1-.67v-.37L599.39,2h-24.53c-4.64.12-8.49.73-11.53,1.96-3.05,1.22-5.56,2.86-7.51,4.89-1.95,2.04-3.48,4.46-4.58,7.26-1.1,2.81-2.01,5.84-2.75,9.1-.25,1.22-.49,1.99-.73,2.29-.25.31-.49.46-.73.46s-.43-.15-.55-.46c-.12-.31.52-1.83.52-1.83V.92c0-.61.36-.92,1.08-.92h69.83c.72,0,1.08.21,1.08.61v.76l-54.27,103.63h27.81c4.62,0,8.42-.75,11.4-2.25,2.98-1.5,5.41-3.61,7.3-6.33,1.88-2.72,3.38-5.92,4.47-9.58,1.09-3.67,2.07-7.67,2.92-12,.24-1.33.52-2.22.82-2.67.3-.44.58-.67.82-.67.48,0,.73.83.73,2.5v32c0,.67-.36,1-1.09,1h-74.81Z"/>
      <path d="M625.05,107c-.73,0-1.1-.2-1.1-.61,0-.2.18-.41.55-.61.37-.2,1.4-.41,3.11-.61,1.1-.2,2.13-.48,3.11-.84.97-.36,1.92-.94,2.84-1.76.91-.81,1.8-1.93,2.65-3.36.85-1.43,1.71-3.26,2.56-5.5L673.36.76c.12-.51.55-.76,1.28-.76h2.56c.73,0,1.16.26,1.28.76l35.87,92.94c.85,2.24,1.71,4.08,2.56,5.5.85,1.43,1.74,2.55,2.65,3.36.91.82,1.86,1.4,2.84,1.76.97.36,2.01.64,3.11.84,1.71.21,2.74.41,3.11.61.37.21.55.41.55.61,0,.41-.37.61-1.1.61h-42.09c-.73,0-1.1-.2-1.1-.61,0-.2.18-.41.55-.61.37-.2,1.4-.41,3.11-.61,1.1-.2,2.29-.48,3.57-.84,1.28-.36,2.38-.89,3.29-1.6.91-.71,1.52-1.68,1.83-2.9.3-1.22.09-2.8-.64-4.74l-12.99-34.39c-2.44,2.45-5.43,4.36-8.97,5.73-3.54,1.38-7.17,2.85-10.89,4.43-3.72,1.58-7.35,3.54-10.89,5.88-3.54,2.35-6.47,5.61-8.78,9.78l-3.29,8.87c-.73,1.94-.95,3.49-.64,4.66.3,1.17.91,2.12,1.83,2.83.91.71,1.98,1.22,3.2,1.53,1.22.31,2.38.56,3.48.76,1.71.21,2.74.41,3.11.61.37.21.55.41.55.61,0,.41-.37.61-1.1.61h-26.17ZM646.45,80.27c2.81-3.06,5.89-5.45,9.25-7.19,3.36-1.73,6.74-3.29,10.16-4.66,3.42-1.38,6.62-2.73,9.61-4.05,2.99-1.32,5.46-3.11,7.42-5.35l-14.46-38.54-21.97,59.8Z"/>
    </g>
    <path class="cls-2" d="M91,8v30h-16V0H30v30H0v152h45v-30h15v38h45v-30h31V8h-45ZM30,167h-15V46h15v121ZM60,137h-15V16h15v121ZM90,175h-15V54h15v121ZM121,144h-15V23h15v121Z"/>
    <g>
      <path class="cls-1" d="M196.08,141.72c3.91,0,7.59.43,11.05,1.3,3.45.86,6.48,2.24,9.07,4.13,2.59,1.89,4.64,4.34,6.14,7.36,1.5,3.02,2.25,6.69,2.25,11.01s-.75,8.07-2.25,11.11c-1.5,3.05-3.55,5.51-6.14,7.4-2.59,1.89-5.61,3.26-9.07,4.13-3.45.86-7.14,1.3-11.05,1.3h-11.87v-47.73h11.87ZM196.08,188.3c3.64,0,6.79-.41,9.48-1.23,2.68-.82,4.91-2.13,6.68-3.92,1.77-1.8,3.09-4.15,3.95-7.06.86-2.91,1.3-6.43,1.3-10.57s-.43-7.64-1.3-10.5c-.86-2.86-2.18-5.19-3.95-6.99-1.77-1.79-4-3.1-6.68-3.92-2.68-.82-5.84-1.23-9.48-1.23h-4.77v45.41h4.77Z"/>
      <path class="cls-1" d="M238.5,188.3h23.05v1.16h-30.14v-47.73h27.21v1.16h-20.12v19.71h13.16v1.16h-13.16v24.55Z"/>
      <path class="cls-1" d="M324.96,175.41c0,2.91-.8,5.29-2.39,7.13-1.59,1.84-3.6,3.27-6.04,4.3-2.43,1.02-5.09,1.72-7.98,2.08-2.89.37-5.65.55-8.28.55h-11.46v-47.73h9.96c2.05,0,4.16.09,6.34.27,2.18.18,4.18.6,6,1.26,1.82.66,3.32,1.66,4.5,3,1.18,1.34,1.77,3.17,1.77,5.49,0,1.91-.51,3.45-1.53,4.64s-2.23,2.13-3.61,2.83c-1.39.71-2.81,1.23-4.26,1.57-1.46.34-2.61.6-3.48.78.64.05,1.58.1,2.83.17,1.25.07,2.64.23,4.16.48,1.52.25,3.08.66,4.67,1.23s3.04,1.35,4.33,2.35c1.3,1,2.36,2.29,3.21,3.85.84,1.57,1.26,3.49,1.26,5.76ZM295.91,161.36h2.86c2.86,0,5.16-.32,6.89-.95,1.73-.64,3.04-1.42,3.95-2.35.91-.93,1.5-1.93,1.77-3,.27-1.07.41-2.03.41-2.9,0-1.27-.14-2.48-.41-3.61-.27-1.14-.86-2.12-1.77-2.97-.91-.84-2.23-1.5-3.95-1.98-1.73-.48-4.02-.72-6.89-.72h-2.86v18.48ZM295.91,188.3h4.36c4,0,7.17-.4,9.51-1.19,2.34-.79,4.1-1.82,5.28-3.07,1.18-1.25,1.94-2.64,2.29-4.16.34-1.52.51-3.01.51-4.47,0-1.27-.17-2.66-.51-4.16-.34-1.5-1.12-2.9-2.32-4.19-1.21-1.3-2.97-2.38-5.29-3.24s-5.48-1.3-9.48-1.3h-4.36v25.78Z"/>
      <path class="cls-1" d="M355.58,190c-4.27,0-8.01-.67-11.22-2.01-3.21-1.34-5.86-3.13-7.98-5.35-2.11-2.23-3.69-4.8-4.74-7.71-1.05-2.91-1.57-5.93-1.57-9.07s.52-6.24,1.57-9.17c1.05-2.93,2.63-5.51,4.74-7.74,2.11-2.23,4.77-4.01,7.98-5.35,3.2-1.34,6.94-2.01,11.22-2.01s8.07.67,11.25,2.01,5.84,3.13,7.98,5.35c2.14,2.23,3.73,4.81,4.77,7.74s1.57,5.99,1.57,9.17-.52,6.16-1.57,9.07c-1.05,2.91-2.64,5.48-4.77,7.71-2.14,2.23-4.8,4.01-7.98,5.35-3.18,1.34-6.93,2.01-11.25,2.01ZM355.58,142.68c-3.09,0-5.8.65-8.12,1.94-2.32,1.3-4.24,3.02-5.76,5.18-1.52,2.16-2.66,4.64-3.41,7.43-.75,2.8-1.13,5.67-1.13,8.63s.38,5.82,1.13,8.59c.75,2.77,1.89,5.23,3.41,7.36,1.52,2.14,3.44,3.85,5.76,5.15,2.32,1.3,5.02,1.94,8.12,1.94s5.85-.65,8.15-1.94c2.29-1.3,4.22-3.02,5.76-5.18,1.54-2.16,2.69-4.62,3.44-7.4.75-2.77,1.13-5.64,1.13-8.59s-.38-5.83-1.13-8.63-1.9-5.26-3.44-7.4c-1.55-2.14-3.47-3.85-5.76-5.15-2.3-1.3-5.01-1.94-8.15-1.94Z"/>
      <path class="cls-1" d="M395.06,188.3h23.05v1.16h-30.14v-47.73h27.21v1.16h-20.12v19.71h13.16v1.16h-13.16v24.55Z"/>
      <path class="cls-1" d="M435.22,166.75l-3.2,4.3v18.41h-7.09v-47.73h7.09v27.34l20.18-27.34h1.5l-14.46,19.5,17.66,28.23h-7.5l-14.18-22.71Z"/>
      <path class="cls-1" d="M470.74,189.45h-7.02v-47.73h7.02v22.09h28.16v-22.09h7.09v47.73h-7.09v-24.48h-28.16v24.48Z"/>
      <path class="cls-1" d="M538.32,190c-4.27,0-8.01-.67-11.22-2.01-3.21-1.34-5.86-3.13-7.98-5.35-2.11-2.23-3.69-4.8-4.74-7.71-1.05-2.91-1.57-5.93-1.57-9.07s.52-6.24,1.57-9.17c1.05-2.93,2.63-5.51,4.74-7.74,2.11-2.23,4.77-4.01,7.98-5.35,3.2-1.34,6.94-2.01,11.22-2.01s8.07.67,11.25,2.01,5.84,3.13,7.98,5.35c2.14,2.23,3.73,4.81,4.77,7.74s1.57,5.99,1.57,9.17-.52,6.16-1.57,9.07c-1.05,2.91-2.64,5.48-4.77,7.71-2.14,2.23-4.8,4.01-7.98,5.35-3.18,1.34-6.93,2.01-11.25,2.01ZM538.32,142.68c-3.09,0-5.8.65-8.12,1.94-2.32,1.3-4.24,3.02-5.76,5.18-1.52,2.16-2.66,4.64-3.41,7.43-.75,2.8-1.13,5.67-1.13,8.63s.38,5.82,1.13,8.59c.75,2.77,1.89,5.23,3.41,7.36,1.52,2.14,3.44,3.85,5.76,5.15,2.32,1.3,5.02,1.94,8.12,1.94s5.85-.65,8.15-1.94c2.29-1.3,4.22-3.02,5.76-5.18,1.54-2.16,2.69-4.62,3.44-7.4.75-2.77,1.13-5.64,1.13-8.59s-.38-5.83-1.13-8.63c-.75-2.8-1.9-5.26-3.44-7.4-1.55-2.14-3.47-3.85-5.76-5.15-2.3-1.3-5.01-1.94-8.15-1.94Z"/>
      <path class="cls-1" d="M588.78,190c-3.32,0-6.17-.37-8.56-1.09-2.39-.73-4.36-1.75-5.93-3.07s-2.73-2.89-3.48-4.71c-.75-1.82-1.13-3.82-1.13-6v-33.41h7.09v33.82c0,4.05,1.01,7.29,3.03,9.72,2.02,2.43,5.01,3.65,8.97,3.65,2,0,3.88-.32,5.63-.95,1.75-.64,3.28-1.53,4.6-2.69,1.32-1.16,2.36-2.56,3.14-4.19.77-1.64,1.16-3.48,1.16-5.52v-33.82h1.16v33.82c0,2.18-.41,4.16-1.23,5.93-.82,1.77-1.93,3.28-3.34,4.53-1.41,1.25-3.07,2.23-4.98,2.93-1.91.7-3.96,1.06-6.14,1.06Z"/>
      <path class="cls-1" d="M623.14,141.72c3.91,0,7.59.43,11.05,1.3,3.45.86,6.48,2.24,9.07,4.13,2.59,1.89,4.64,4.34,6.14,7.36,1.5,3.02,2.25,6.69,2.25,11.01s-.75,8.07-2.25,11.11c-1.5,3.05-3.55,5.51-6.14,7.4-2.59,1.89-5.61,3.26-9.07,4.13-3.45.86-7.14,1.3-11.05,1.3h-11.87v-47.73h11.87ZM623.14,188.3c3.64,0,6.79-.41,9.48-1.23,2.68-.82,4.91-2.13,6.68-3.92,1.77-1.8,3.09-4.15,3.95-7.06.86-2.91,1.3-6.43,1.3-10.57s-.43-7.64-1.3-10.5c-.86-2.86-2.18-5.19-3.95-6.99-1.77-1.79-4-3.1-6.68-3.92-2.68-.82-5.84-1.23-9.48-1.23h-4.77v45.41h4.77Z"/>
      <path class="cls-1" d="M665.56,188.3h23.05v1.16h-30.14v-47.73h27.21v1.16h-20.12v19.71h13.16v1.16h-13.16v24.55Z"/>
      <path class="cls-1" d="M722.08,189.45l-12.68-19.78h-6.89v19.78h-7.09v-47.73h13.57c2.77,0,5.3.27,7.57.82,2.27.55,4.22,1.39,5.83,2.52,1.61,1.14,2.86,2.58,3.75,4.33.89,1.75,1.33,3.85,1.33,6.31,0,3.73-1,6.67-3,8.83-2,2.16-4.75,3.63-8.25,4.4l12.96,20.52h-7.09ZM704.9,168.59c2.36,0,4.53-.22,6.51-.65,1.98-.43,3.67-1.15,5.08-2.15,1.41-1,2.51-2.33,3.31-3.99.79-1.66,1.19-3.69,1.19-6.1s-.4-4.5-1.19-6.14c-.8-1.64-1.9-2.95-3.31-3.96-1.41-1-3.1-1.72-5.08-2.15-1.98-.43-4.15-.65-6.51-.65h-2.39v25.77h2.39Z"/>
    </g>
  </g>
</svg>